<?xml version="1.0" encoding="UTF-8" standalone="no"?>
<!-- Created with Inkscape (http://www.inkscape.org/) -->

<svg
   width="34.151001mm"
   height="34.152mm"
   viewBox="0 0 34.151001 34.152001"
   version="1.1"
   id="svg5"
   xml:space="preserve"
   inkscape:version="1.2.2 (b0a8486541, 2022-12-01)"
   sodipodi:docname="grafico.svg"
   xmlns:inkscape="http://www.inkscape.org/namespaces/inkscape"
   xmlns:sodipodi="http://sodipodi.sourceforge.net/DTD/sodipodi-0.dtd"
   xmlns="http://www.w3.org/2000/svg"
   xmlns:svg="http://www.w3.org/2000/svg"><sodipodi:namedview
     id="namedview7"
     pagecolor="#ffffff"
     bordercolor="#000000"
     borderopacity="0.25"
     inkscape:showpageshadow="2"
     inkscape:pageopacity="0.0"
     inkscape:pagecheckerboard="0"
     inkscape:deskcolor="#d1d1d1"
     inkscape:document-units="mm"
     showgrid="false"
     inkscape:zoom="6.1977824"
     inkscape:cx="64.539213"
     inkscape:cy="64.539213"
     inkscape:window-width="2560"
     inkscape:window-height="1003"
     inkscape:window-x="0"
     inkscape:window-y="0"
     inkscape:window-maximized="1"
     inkscape:current-layer="layer2" /><defs
     id="defs2" /><g
     inkscape:groupmode="layer"
     id="layer2"
     inkscape:label="Camada 2"
     transform="translate(-92.947144,-125.44503)"><g
       id="g9628"
       transform="translate(2.1166667,2.1166667)"><rect
         style="fill:#0e6087;fill-opacity:1;stroke:none;stroke-width:0.265112;stroke-linecap:round;stroke-dasharray:none;stroke-opacity:1"
         id="rect278"
         width="30.15074"
         height="3.1373744"
         x="92.947144"
         y="152.46004"
         ry="0.70377523" /><rect
         style="fill:#507abc;fill-opacity:1;stroke:none;stroke-width:0.265112;stroke-linecap:round;stroke-dasharray:none;stroke-opacity:1"
         id="rect2522"
         width="10.5143"
         height="3.9679823"
         x="139.98247"
         y="-99.070168"
         ry="0.70377523"
         transform="rotate(90)" /><rect
         style="fill:#507abc;fill-opacity:1;stroke:none;stroke-width:0.265112;stroke-linecap:round;stroke-dasharray:none;stroke-opacity:1"
         id="rect3214"
         width="15.676078"
         height="3.9679794"
         x="134.82069"
         y="-106.26922"
         ry="0.70377523"
         transform="rotate(90)" /><rect
         style="fill:#507abc;fill-opacity:1;stroke:none;stroke-width:0.265112;stroke-linecap:round;stroke-dasharray:none;stroke-opacity:1"
         id="rect3216"
         width="10.5143"
         height="3.9679823"
         x="139.98247"
         y="-114.16577"
         ry="0.70377523"
         transform="rotate(90)" /><rect
         style="fill:#507abc;fill-opacity:1;stroke:none;stroke-width:0.265112;stroke-linecap:round;stroke-dasharray:none;stroke-opacity:1"
         id="rect3218"
         width="15.676078"
         height="3.9679794"
         x="134.82069"
         y="-121.45145"
         ry="0.70377523"
         transform="rotate(90)" /><path
         style="fill:#abc7ae;fill-opacity:1;stroke:none;stroke-width:0.265112;stroke-linecap:round;stroke-dasharray:none;stroke-opacity:1"
         d="m 116.38624,149.02412 -4.69627,4.64073 c 2.62283,2.07972 5.47446,2.29136 8.56529,0.54994 z"
         id="path3380"
         sodipodi:nodetypes="cccc" /><path
         style="fill:#dc4c03;fill-opacity:1;stroke:none;stroke-width:0.265112;stroke-linecap:round;stroke-dasharray:none;stroke-opacity:1"
         d="m 116.34907,148.97234 v -6.77767 c 4.92698,-0.2899 9.66995,6.47262 3.92021,12.06583 z"
         id="path4796"
         sodipodi:nodetypes="cccc" /><path
         style="fill:#0000ff;fill-opacity:1;stroke:none;stroke-width:0.265112;stroke-linecap:round;stroke-dasharray:none;stroke-opacity:1"
         d="m 116.34726,148.97648 v -6.7338 c -4.00951,0.36263 -6.17533,2.67155 -6.68692,6.72674 z"
         id="path5266"
         sodipodi:nodetypes="cccc" /><path
         style="fill:#ffff00;fill-opacity:1;stroke:none;stroke-width:0.265112;stroke-linecap:round;stroke-dasharray:none;stroke-opacity:1"
         d="m 116.32239,148.95734 h -6.60826 c 0.0995,2.1932 0.97358,3.62295 1.97538,4.76589 z"
         id="path8427"
         sodipodi:nodetypes="cccc" /><path
         style="fill:#039497;fill-opacity:1;stroke:none;stroke-width:0.265112;stroke-linecap:round;stroke-dasharray:none;stroke-opacity:1"
         d="m 94.382549,134.88698 8.892061,-8.89206 c 0.77163,-0.74581 1.49441,-0.55789 2.19782,0 l 6.2335,6.32093 c 0.27665,0.08 0.48479,0.31839 0.95696,-0.0532 l 3.46298,-3.41428 c 0.27187,-0.28561 0.0229,-0.54148 -0.10777,-0.8041 l -1.88031,-1.79446 c -0.50316,-0.61372 8.5e-4,-0.65743 0.32174,-0.80478 h 7.51626 v 7.61689 c -0.13229,0.46934 -0.42994,0.35752 -0.71895,0.27606 l -1.85256,-1.84245 c -0.33378,-0.28534 -0.66554,-0.37478 -0.99262,-0.008 l -5.44671,5.44182 c -0.51966,0.2021 -1.07072,0.26409 -1.69485,0 l -6.44062,-6.32143 c -0.31366,-0.27813 -0.61215,-0.60316 -1.21078,0 l -6.704176,6.68918 c -0.237274,0.26006 -0.472597,0.24543 -0.707162,0.12409 l -1.838354,-1.80497 c -0.124147,-0.18945 -0.268557,-0.37045 0.01354,-0.72924 z"
         id="path8512"
         sodipodi:nodetypes="cccccccccccccccccccccc" /></g></g></svg>
